<svg id="Icon_imagem" data-name="Icon / imagem" xmlns="http://www.w3.org/2000/svg" width="2000" height="2000" viewBox="-703 -842.5 2500 2500">
  <defs>
    <style>
      .cls-1 {
        fill: #969696;
      }
    </style>
  </defs>
  <path id="image" class="cls-1" d="M984.792,879H101.875A101.874,101.874,0,0,1,0,777.125V165.875A101.874,101.874,0,0,1,101.875,64H984.792a101.874,101.874,0,0,1,101.875,101.875v611.25A101.874,101.874,0,0,1,984.792,879ZM237.708,182.854A118.854,118.854,0,1,0,356.563,301.707,118.853,118.853,0,0,0,237.708,182.854ZM135.833,743.167h815V505.458L765.092,319.717a25.47,25.47,0,0,0-36.019,0L441.458,607.332,323.634,489.509a25.469,25.469,0,0,0-36.019,0L135.833,641.292Z" transform="translate(0 -64)"/>
</svg>
